<?xml version="1.0" standalone="no"?><!DOCTYPE svg PUBLIC "-//W3C//DTD SVG 1.1//EN" "http://www.w3.org/Graphics/SVG/1.1/DTD/svg11.dtd"><svg t="1526301039556" class="icon" style="" viewBox="0 0 1024 1024" version="1.1" xmlns="http://www.w3.org/2000/svg" p-id="15755" xmlns:xlink="http://www.w3.org/1999/xlink" width="48" height="48"><defs><style type="text/css"></style></defs><path d="M959.5 657.3c-3 13.8-5.7 27.6-8.9 41.3-24.7 105-123.7 179.1-233.2 174.7-107.5-4.4-199.3-87.3-214.9-194-19-130.3 68.4-244.8 198.8-261.8 130.5-17 242.4 83.1 253.7 198.1 0.5 5 3 9.7 4.5 14.6v27.1z m-260 36.6c-26.4-26.9-50.5-52-75.2-76.5-15.8-15.7-35.1-16.6-47.8-3.3-13 13.6-12.3 30.4 3.2 46.2 31.7 32.2 63.6 64.1 96 95.7 16.5 16.1 33.1 16.4 49.3 0.4 52.9-52.1 105.4-104.5 157.8-157.2 15.9-16 16.3-34.6 2.5-47.7-13.1-12.4-31-11.4-46.3 3.8-40.8 40.4-81.3 81.2-121.9 121.8-4.9 5.1-10.2 9.8-17.6 16.8z" fill="#ffffff" p-id="15756"></path><path d="M927.1 390.1C801 305.9 673 294.4 549.6 379.3c-132.7 91.3-167 222.1-123 377.8-28.7 0-56.3-1.2-83.7 0.6-11.8 0.8-25.4 5.3-34.3 12.7-57.1 47.5-113.1 96.4-169.5 144.7-4.2 3.6-8.9 6.7-16.2 12.2V783.4c0-26.2 0-26.2-26.2-26.3-4.5 0-9.1-0.4-13.6 0.1-14.8 1.7-18.7-5.2-18.5-19.2 0.7-53 0.3-106 0.4-158.9 0.1-151.2 0.3-302.4 0.4-453.6 0-27.5 1.2-28.7 28.2-28.7H900c26.7 0 26.8 0.1 26.8 27 0.1 82.1 0.3 164.1 0.4 246.2-0.1 5.7-0.1 11.4-0.1 20.1zM497.3 236.6H392.7c-56.2 0-112.4 0.4-168.5-0.2-14-0.1-20.7 4-19 18.6 0.5 4.5 0.1 9 0.1 13.6 0 32.1 0 32.1 33.1 32.1h511.5c40.5 0 39.5 0 40.6-39.7 0.6-20-6.5-25.1-25.7-24.9-89.3 1-178.4 0.5-267.5 0.5zM322.8 445c25.1 0 50.3 0.3 75.4-0.1 50.9-0.7 41.7 7.1 43.4-44.6 0.5-15.3-4.6-20.2-19.8-20-57.4 0.7-114.7-0.1-172.1 0.4-51.6 0.5-43.1-8.3-44.5 45.3-0.4 14.3 4.7 19.5 18.9 19.2 32.9-0.7 65.8-0.3 98.7-0.2z m-28 143.6h44.4c44.3 0 43.7 0 44.1-43.5 0.2-15.3-4.9-20.4-19.8-20.2-37.3 0.6-74.7-0.2-112.1 0.3-54.2 0.7-44.9-8.1-46 47.7-0.2 11.7 4.3 16.1 15.9 15.8 24.6-0.5 49-0.2 73.5-0.1z" fill="#ffffff" p-id="15757"></path></svg>